<?xml version="1.0" standalone="no"?>
<!DOCTYPE svg PUBLIC "-//W3C//DTD SVG 20010904//EN"
 "http://www.w3.org/TR/2001/REC-SVG-20010904/DTD/svg10.dtd">
<svg version="1.0" xmlns="http://www.w3.org/2000/svg"
 width="1080.000000pt" height="241.000000pt" viewBox="0 0 1080.000000 241.000000"
 preserveAspectRatio="xMidYMid meet">

<g transform="translate(0.000000,241.000000) scale(0.100000,-0.100000)"
fill="#000000" stroke="none">
<path d="M2278 1934 c-21 -7 -78 -16 -128 -20 -79 -6 -90 -9 -90 -25 0 -14 7
-19 26 -19 41 0 64 -18 64 -49 0 -16 -67 -248 -150 -517 -82 -268 -150 -505
-150 -525 0 -50 30 -86 79 -94 56 -9 117 20 172 84 75 87 141 238 90 206 -6
-3 -25 -33 -41 -65 -52 -103 -136 -171 -153 -125 -8 20 2 54 178 625 85 278
158 513 161 523 6 20 -5 20 -58 1z"/>
<path d="M4210 1935 c-14 -8 -70 -17 -125 -22 -83 -7 -100 -11 -103 -25 -3
-14 4 -18 32 -18 38 0 66 -21 66 -50 0 -10 -72 -250 -160 -534 -88 -283 -160
-521 -160 -529 0 -33 146 -76 255 -77 91 0 158 30 230 105 170 173 265 531
182 680 -28 50 -71 67 -131 52 -57 -14 -148 -109 -208 -217 -27 -47 -48 -81
-48 -77 0 4 50 164 110 356 61 191 110 353 110 359 0 15 -18 14 -50 -3z m86
-550 c14 -22 16 -42 11 -123 -7 -113 -34 -216 -83 -318 -63 -128 -125 -184
-204 -184 -43 0 -100 23 -100 41 0 26 97 283 138 366 72 146 154 243 204 243
10 0 25 -11 34 -25z"/>
<path d="M6439 1788 c-30 -73 -55 -136 -57 -140 -2 -4 5 -8 16 -8 14 0 44 38
106 134 47 73 86 136 86 140 0 3 -22 6 -49 6 l-49 0 -53 -132z"/>
<path d="M2522 1838 c-66 -72 -10 -181 84 -164 63 12 92 82 59 145 -17 33 -33
41 -84 41 -26 0 -44 -7 -59 -22z"/>
<path d="M5322 1660 c-52 -91 -120 -144 -204 -158 -29 -5 -43 -13 -49 -30 -8
-21 -6 -22 46 -22 l53 0 -98 -296 c-55 -163 -102 -315 -105 -338 -10 -64 13
-112 62 -126 99 -30 215 54 307 221 41 74 44 89 18 89 -13 0 -27 -17 -43 -52
-13 -28 -49 -78 -80 -111 -47 -49 -61 -58 -85 -55 -24 2 -29 8 -31 33 -2 17
41 164 95 330 l99 300 74 5 c67 5 74 7 77 28 3 21 0 22 -62 22 -36 0 -66 4
-66 9 0 5 14 46 30 91 36 97 36 100 8 100 -16 0 -30 -12 -46 -40z"/>
<path d="M1703 1516 c-178 -57 -356 -359 -356 -601 0 -155 64 -235 190 -235
122 0 237 111 318 303 14 35 14 37 -2 37 -12 0 -30 -23 -52 -62 -38 -70 -102
-143 -142 -164 -40 -20 -92 -17 -122 7 -36 27 -50 87 -42 169 l7 67 61 17
c187 52 329 182 343 314 12 113 -87 185 -203 148z m91 -72 c14 -35 5 -106 -18
-152 -31 -60 -111 -136 -179 -167 -89 -42 -91 -36 -35 105 56 142 129 230 192
230 22 0 36 -6 40 -16z"/>
<path d="M2890 1521 c-112 -36 -181 -127 -181 -237 0 -64 19 -110 108 -255 58
-96 67 -118 71 -168 4 -53 2 -61 -26 -92 -23 -25 -37 -33 -64 -33 -53 0 -86
28 -118 100 -26 57 -32 64 -58 64 -15 0 -34 -6 -41 -12 -7 -7 -3 9 9 36 11 27
18 51 16 54 -14 13 -38 -13 -71 -77 -40 -76 -93 -131 -125 -131 -36 0 -23 58
75 346 59 174 95 294 95 319 0 80 -68 107 -157 64 -50 -24 -136 -116 -176
-188 -26 -46 -26 -51 -10 -51 12 0 38 27 71 75 53 77 105 116 125 96 8 -8 -17
-97 -91 -319 -56 -170 -102 -322 -102 -339 0 -71 79 -111 156 -78 47 19 97 65
134 122 l27 43 6 -41 c11 -81 96 -138 205 -139 73 0 124 19 170 63 42 40 60
74 72 136 14 72 -5 127 -88 267 -86 144 -96 171 -89 232 6 59 41 92 96 92 43
0 70 -24 95 -83 8 -20 22 -40 31 -43 28 -11 62 5 75 36 17 41 -12 96 -65 124
-42 22 -134 31 -175 17z"/>
<path d="M3450 1520 c-131 -24 -288 -208 -367 -432 -19 -54 -27 -101 -30 -180
-5 -96 -3 -111 17 -153 32 -66 89 -90 155 -65 68 26 187 177 257 326 17 36 32
63 34 62 2 -2 -19 -68 -46 -148 -52 -152 -54 -176 -17 -217 69 -76 203 -8 290
147 44 81 56 120 34 120 -9 0 -32 -30 -54 -72 -45 -86 -96 -140 -126 -136 -13
2 -23 11 -25 23 -1 11 51 178 117 372 70 204 116 355 111 358 -6 4 -24 -4 -42
-16 -17 -13 -47 -25 -66 -28 -31 -5 -37 -11 -56 -61 l-20 -55 -8 42 c-4 23
-12 51 -18 62 -20 38 -84 61 -140 51z m98 -125 c37 -112 -76 -392 -217 -537
-46 -47 -63 -58 -89 -58 -28 0 -32 4 -43 42 -39 145 104 498 234 579 20 12 46
18 67 17 31 -3 36 -7 48 -43z"/>
<path d="M4792 1516 c-158 -51 -316 -289 -352 -532 -28 -180 45 -304 179 -304
126 1 233 97 315 283 23 51 24 57 8 57 -11 0 -29 -22 -49 -58 -39 -71 -105
-147 -144 -167 -46 -25 -96 -19 -129 13 -35 35 -45 82 -36 166 l7 63 62 17
c198 55 340 194 341 332 1 108 -90 166 -202 130z m92 -72 c26 -67 -15 -175
-93 -247 -66 -62 -181 -117 -181 -88 0 6 12 43 26 83 57 161 140 268 208 268
22 0 36 -6 40 -16z"/>
<path d="M6383 1519 c-81 -15 -139 -62 -163 -135 -13 -39 -8 -97 11 -120 14
-17 61 -18 77 -2 15 15 15 55 2 95 -21 59 27 113 100 113 82 0 120 -59 120
-188 l0 -77 -95 -49 c-171 -89 -255 -188 -255 -304 0 -66 18 -110 59 -145 89
-74 218 -19 270 116 19 50 20 50 20 19 2 -92 50 -172 102 -172 25 0 60 18 76
39 8 11 12 12 13 4 0 -10 51 -13 220 -13 l220 0 0 125 c0 118 -1 125 -20 125
-17 0 -20 -7 -21 -52 0 -70 -18 -120 -49 -135 -29 -15 -240 -18 -240 -4 0 5
77 165 170 356 94 191 170 356 170 366 0 19 -9 19 -217 17 l-218 -3 0 -110 c0
-94 2 -110 17 -113 13 -3 18 9 23 62 11 100 20 106 166 106 115 0 120 -1 114
-19 -3 -11 -77 -165 -164 -342 -143 -292 -158 -317 -153 -271 4 43 2 52 -11
52 -11 0 -18 -14 -23 -45 -8 -59 -36 -94 -61 -79 -17 10 -18 36 -24 320 -6
311 -9 343 -46 401 -32 49 -112 75 -190 62z m145 -472 c-3 -92 -6 -109 -36
-170 -39 -79 -87 -121 -139 -121 -54 0 -83 39 -83 110 0 71 19 114 73 166 41
40 160 118 180 118 5 0 7 -46 5 -103z"/>
<path d="M7370 1509 c-38 -15 -89 -69 -116 -121 -75 -147 -79 -462 -8 -600 76
-146 231 -153 316 -13 18 30 18 28 18 -157 0 -182 -1 -187 -22 -202 -12 -9
-35 -16 -51 -16 -22 0 -28 -4 -25 -17 3 -16 19 -18 141 -21 132 -2 137 -2 137
18 0 15 -7 20 -25 20 -14 0 -34 9 -45 20 -20 20 -20 33 -20 554 0 379 -3 537
-11 542 -6 3 -22 -5 -36 -18 l-24 -25 -46 24 c-50 25 -136 30 -183 12z m140
-64 c16 -8 38 -28 49 -44 20 -28 21 -42 21 -279 l0 -249 -30 -42 c-81 -111
-176 -104 -229 18 -41 96 -50 311 -19 441 33 138 118 201 208 155z"/>
<path d="M8485 1501 c-111 -69 -172 -243 -161 -456 13 -258 129 -408 282 -365
88 25 160 141 180 289 6 43 4 51 -10 51 -9 0 -18 -11 -22 -27 -27 -127 -72
-205 -130 -229 -61 -26 -126 11 -169 94 -23 46 -45 155 -45 225 l0 57 186 0
187 0 -6 83 c-8 134 -62 243 -138 283 -40 20 -118 18 -154 -5z m124 -46 c40
-20 72 -93 78 -182 l6 -73 -141 0 -141 0 5 33 c21 118 57 197 102 222 35 18
56 18 91 0z"/>
<path d="M7782 1478 c-86 -31 -104 -55 -38 -50 31 2 38 -1 46 -23 6 -15 10
-149 10 -319 0 -283 1 -293 23 -336 54 -108 183 -100 286 16 l41 47 0 -62 c0
-43 4 -63 14 -67 7 -3 47 9 89 27 58 25 73 36 70 50 -4 15 -9 16 -34 7 -61
-21 -59 -34 -59 366 0 201 -4 367 -8 370 -14 8 -173 -56 -169 -68 2 -6 21 -11
43 -11 l39 0 3 -287 2 -286 -46 -41 c-78 -69 -156 -78 -191 -24 -16 24 -18 62
-21 368 -2 187 -6 343 -10 347 -4 3 -44 -7 -90 -24z"/>
<path d="M5590 1480 c0 -14 7 -20 23 -20 52 0 65 -32 172 -412 135 -481 117
-479 247 -23 53 187 99 351 103 363 9 35 50 72 80 72 18 0 25 5 25 20 0 19 -7
20 -120 20 -113 0 -120 -1 -120 -20 0 -16 7 -20 34 -20 42 0 59 -19 50 -57
-18 -80 -147 -529 -153 -536 -9 -9 -151 515 -151 554 0 28 16 39 56 39 17 0
24 6 24 20 0 19 -7 20 -135 20 -128 0 -135 -1 -135 -20z"/>
<path d="M8844 1487 c-2 -7 -3 -58 -2 -113 3 -85 5 -99 21 -102 13 -3 17 4 17
30 1 53 17 111 36 125 18 13 254 20 254 8 0 -3 -76 -162 -170 -354 -93 -191
-170 -355 -170 -364 0 -15 21 -17 220 -17 l220 0 0 125 c0 115 -1 125 -19 125
-15 0 -19 -11 -25 -72 -11 -121 -27 -131 -197 -126 l-97 3 174 355 c96 195
174 362 174 372 0 17 -15 18 -215 18 -170 0 -217 -3 -221 -13z"/>
</g>
</svg>
