<svg xmlns="http://www.w3.org/2000/svg" viewBox="0 0 22 28">
  <g id="icon-phone-white" fill="none" fill-rule="evenodd">
    <path id="Shape" fill="#FFFFFF" fill-rule="nonzero" d="M18.44 21.881c1.042 0 1.246-.657 1.246-1.246a1.76 1.76 0 0 0-.113-.634c-.045-.09-.25-.657-.272-.702-.362-1.359-.566-2.22-1.246-3.08-.203-.25-1.45-1.314-1.698-1.586-1.495-1.653-1.563-4.054-1.563-4.213 0-.226.068-.657.249-.657.113 0 .77.25.77.816 0 .18-.272 1.042-.272 1.245 0 1.631 3.353 2.176 4.304 2.176.974 0 1.155-.544 1.155-1.45 0-1.404-.521-2.763-1.97-3.624C16.47 7.43 12.777 7 10.988 7c-1.925 0-5.594.453-8.04 1.925C1.272 9.945 1 11.462 1 12.595c0 .815.136 1.404 1.11 1.404 1.02 0 4.326-.544 4.326-2.175 0-.158-.045-.43-.159-.747-.113-.272-.113-.317-.113-.498 0-.59.657-.816.748-.816.226 0 .271.476.271.657 0 .068 0 .793-.294 1.812-.385 1.404-.906 2.152-1.925 3.013-.838.702-1.654 1.404-2.107 3.352-.045.158-.18.702-.204.793-.34.838-.362.906-.362 1.268 0 .634.272 1.223 1.246 1.223H18.44zm-7.45-12.05c.362 0 .634-.022.951-.068.045 0 .498-.068.52-.068.363 0 .431.363.431.567 0 .566-.136.68-1.902.68-1.722 0-1.903-.114-1.903-.635 0-.25.068-.612.43-.612.114 0 .612.091.725.091.204.023.385.045.748.045zm0 2.696a3.857 3.857 0 0 1 3.872 3.873 3.886 3.886 0 0 1-3.873 3.873A3.871 3.871 0 0 1 7.116 16.4a3.871 3.871 0 0 1 3.873-3.873h.001z"/>
  </g>
</svg>
