<svg width="32" height="26" viewBox="0 0 32 26" fill="none" xmlns="http://www.w3.org/2000/svg">
<path d="M1.61491 24.62C3.48691 23.108 4.99891 21.092 6.15091 18.572C7.37491 15.98 7.95091 13.352 7.87891 10.688C7.15891 11.12 6.36691 11.336 5.50291 11.336C3.91891 11.336 2.62291 10.832 1.61491 9.824C0.606906 8.816 0.102906 7.52 0.102906 5.93599C0.102906 4.27999 0.606906 2.94799 1.61491 1.93999C2.69491 0.859995 4.13491 0.319996 5.93491 0.319996C7.95091 0.319996 9.53491 1.076 10.6869 2.588C11.8389 4.028 12.4149 6.08 12.4149 8.744C12.4149 12.128 11.5509 15.44 9.82291 18.68C8.09491 21.92 5.89891 24.332 3.23491 25.916L1.61491 24.62ZM21.076 24.62C22.948 23.108 24.46 21.092 25.612 18.572C26.836 15.98 27.412 13.352 27.34 10.688C26.62 11.12 25.828 11.336 24.964 11.336C23.38 11.336 22.084 10.832 21.076 9.824C20.068 8.816 19.564 7.52 19.564 5.93599C19.564 4.27999 20.068 2.94799 21.076 1.93999C22.156 0.859995 23.596 0.319996 25.396 0.319996C27.412 0.319996 28.996 1.076 30.148 2.588C31.3 4.028 31.876 6.08 31.876 8.744C31.876 12.128 31.012 15.44 29.284 18.68C27.556 21.92 25.36 24.332 22.696 25.916L21.076 24.62Z" fill="white"/>
</svg>
