<svg xmlns="http://www.w3.org/2000/svg" viewBox="0 0 22 28">
  <g id="icon-email-white" fill="none" fill-rule="evenodd">
    <path id="Path" fill="#FFFFFF" fill-rule="nonzero" d="M16.908 8.587c-.005-1.62-2.023-2.943-4.585-3.058a.53.53 0 0 0-.255-.923c-.004-.004-.009-.004-.013-.004v-.268h.225v-.166h-.225v-.272h-.161v.272h-.221v.166h.22v.268a.536.536 0 0 0-.454.527c0 .162.068.302.183.4-2.562.115-4.58 1.437-4.585 3.058h1.118v-.009c0-1.084.943-2.02 2.218-2.458-.65.527-1.207 1.357-1.207 2.292 0 .06 0 .12.004.174h1.11V8.54c0-1.28.645-2.254 1.338-2.569-.12.574-.255 1.284-.255 2.19 0 .145 0 .29.004.425h1.21c.005-.136.005-.28.005-.425 0-.906-.136-1.616-.255-2.19.693.315 1.339 1.289 1.339 2.569v.046h1.109c.004-.055.004-.114.004-.174 0-.935-.557-1.765-1.207-2.292 1.275.438 2.218 1.374 2.218 2.458v.009h1.118"/>
    <path id="Path" fill="#FFFFFF" fill-rule="nonzero" d="M16.44 10.2a.479.479 0 0 0-.48.477.45.45 0 0 0 .042.187.479.479 0 0 0 .004.957c.115 0 .23-.052.315-.12a1.12 1.12 0 0 1-1.003.617c-.412 0-.769-.217-.964-.553 0 0-.021-.038-.026-.064.081.073.192.12.306.12.264 0 .48-.218.48-.481a.48.48 0 0 0-.475-.476.449.449 0 0 0 .042-.187.475.475 0 1 0-.914.187.479.479 0 0 0 0 .957c.12 0 .23-.052.315-.12a.436.436 0 0 1-.026.064 1.123 1.123 0 0 1-1.933 0s-.017-.038-.026-.064a.51.51 0 0 0 .31.12.479.479 0 0 0 .005-.957.475.475 0 1 0-.875 0 .479.479 0 0 0 .004.957.465.465 0 0 0 .31-.12c-.004.03-.026.064-.021.064a1.13 1.13 0 0 1-1.942 0c-.013-.021-.017-.038-.026-.064a.51.51 0 0 0 .31.12.479.479 0 0 0 .005-.957.447.447 0 0 0 .042-.187.479.479 0 0 0-.956 0c0 .068.017.131.043.187a.479.479 0 0 0 0 .957.486.486 0 0 0 .314-.12c-.009.026-.013.039-.021.056-.205.348-.578.56-.982.56-.412 0-.773-.22-.964-.556-.013-.013-.017-.034-.022-.055a.47.47 0 0 0 .306.114.479.479 0 0 0 .005-.956.449.449 0 0 0 .042-.187.475.475 0 0 0-.476-.477c-.234 0-.412.158-.412.443 0 .08.042.187.077.272.114.31.824 2.198.824 2.198h7.95s.7-1.858.833-2.198c.034-.085.072-.17.072-.277 0-.289-.208-.438-.412-.438"/>
    <path id="Shape" fill="#FFFFFF" fill-rule="nonzero" d="M11.974 15.741a3.642 3.642 0 1 1 0 7.284 3.641 3.641 0 0 1-3.637-3.644 3.637 3.637 0 0 1 3.637-3.64zm8.324.055v.06l.128.191a8.382 8.382 0 0 1-4.509 6.226c.608-.817.931-1.799.931-2.892a4.878 4.878 0 0 0-4.874-4.877 4.878 4.878 0 0 0-4.873 4.877c0 .583.063 1.067.25 1.586-1.01-1.305-1.444-2.99-1.372-4.826l.314-.285v-.06h-4.67v.06l.337.28c.781 4.704 4.894 8.378 9.866 8.378 4.988 0 9.105-3.696 9.666-8.454l.132-.204v-.06h-1.326"/>
  </g>
</svg>
