<svg width="144" height="24" viewBox="0 0 144 24" fill="none" xmlns="http://www.w3.org/2000/svg">
<path d="M0.68 0.599998H4.008V23H0.68V0.599998ZM21.3195 23.32C17.5008 23.32 14.5675 22.3173 12.5195 20.312C10.4715 18.3067 9.4475 15.4373 9.4475 11.704C9.4475 8.056 10.4608 5.24 12.4875 3.256C14.5355 1.272 17.4582 0.279999 21.2555 0.279999C24.3488 0.279999 26.8662 0.930665 28.8075 2.232C30.7488 3.53333 31.9008 5.34667 32.2635 7.672H29.3835C29.0208 5.83733 28.1355 4.408 26.7275 3.384C25.3195 2.33867 23.5488 1.816 21.4155 1.816C18.6422 1.816 16.5088 2.66933 15.0155 4.376C13.5435 6.08267 12.8075 8.52533 12.8075 11.704C12.8075 14.9467 13.5542 17.4427 15.0475 19.192C16.5408 20.92 18.6848 21.784 21.4795 21.784C23.6128 21.784 25.3728 21.272 26.7595 20.248C28.1462 19.224 29.0208 17.784 29.3835 15.928H32.2635C31.9008 18.2533 30.7488 20.0667 28.8075 21.368C26.8662 22.6693 24.3702 23.32 21.3195 23.32ZM47.356 23.32C44.8387 23.32 42.6733 22.8613 40.86 21.944C39.0467 21.0267 37.66 19.704 36.7 17.976C35.74 16.2267 35.26 14.136 35.26 11.704C35.26 9.31467 35.74 7.26667 36.7 5.56C37.66 3.832 39.0467 2.52 40.86 1.624C42.6733 0.727999 44.8387 0.279999 47.356 0.279999C49.8733 0.279999 52.028 0.727999 53.82 1.624C55.6333 2.52 57.02 3.832 57.98 5.56C58.94 7.26667 59.42 9.31467 59.42 11.704C59.42 14.136 58.94 16.2267 57.98 17.976C57.02 19.704 55.6333 21.0267 53.82 21.944C52.028 22.8613 49.8733 23.32 47.356 23.32ZM47.356 21.784C50.1293 21.784 52.2733 20.9093 53.788 19.16C55.3027 17.4107 56.06 14.9253 56.06 11.704C56.06 8.54667 55.3027 6.11467 53.788 4.408C52.2947 2.68 50.1507 1.816 47.356 1.816C44.5613 1.816 42.4067 2.66933 40.892 4.376C39.3773 6.08267 38.62 8.52533 38.62 11.704C38.62 14.9253 39.3773 17.4107 40.892 19.16C42.4067 20.9093 44.5613 21.784 47.356 21.784ZM63.5555 0.599998H66.9155L80.5475 17.976V0.599998H83.3635V23H81.6995L66.3715 3.512V23H63.5555V0.599998ZM89.3988 0.599998H92.7268V23H89.3988V0.599998ZM106.07 11.992L102.102 15.96V23H98.7743V0.599998H102.102V12.984L114.614 0.599998H117.494L108.31 9.752L118.486 23H114.55L106.07 11.992ZM137.305 17.176H124.409L121.497 23H119.257L130.905 0.279999H132.633L143.609 23H140.025L137.305 17.176ZM136.569 15.64L131.065 3.864L125.177 15.64H136.569Z" fill="#222222"/>
</svg>
